<?xml version="1.0" encoding="utf-8" ?>
<svg xmlns="http://www.w3.org/2000/svg" width="1430" height="390" viewBox="270 840 1430 390">
  <defs>
    <mask id="mask-a1">
      <rect x="0" y="0" width="2000" height="2000" fill="white"/>
      <path fill="black" d="M871.619 945.982C874.907 949.137 901.522 1027.98 905.457 1039.12C894.257 1039.95 882.139 1040.1 870.85 1040.44C858.004 1040.93 848.142 1040.56 835.315 1039.99C848.284 1008.13 857.067 977.775 871.619 945.982Z"/>
    </mask>
    <mask id="mask-a2">
      <rect x="0" y="0" width="2000" height="2000" fill="white"/>
      <path fill="black" d="M1494.61 945.985C1497.73 949.097 1524.57 1028.25 1528.42 1039.13C1517.18 1039.95 1505.21 1040.1 1493.9 1040.44C1481.02 1040.93 1471.15 1040.57 1458.27 1039.99C1471.36 1008.36 1479.85 977.682 1494.61 945.985Z"/>
    </mask>
    <mask id="mask-small-a1">
      <rect x="0" y="0" width="2000" height="2000" fill="white"/>
      <path fill="black" d="M1314.5 1171.6 L1320.6 1188.1 L1308.4 1188.1 Z"/>
    </mask>
    <mask id="mask-small-a2">
      <rect x="0" y="0" width="2000" height="2000" fill="white"/>
      <path fill="black" d="M1572 1172.4 L1578 1188.1 L1566 1188.1 Z"/>
    </mask>
  </defs>

  <!-- W -->
  <path fill="#FFF3C2" d="M520.169 864.029C527.31 862.087 584.587 861.562 591.341 864.318C596.203 870.538 596.765 875.895 598.532 882.013C603.328 898.613 636.36 1033.49 644.206 1039.67C648.306 1035.16 648.515 1023.85 650.263 1017.57C654.426 1002.63 656.834 986.511 659.973 971.71C667.828 934.678 673.953 862.169 723.748 860.395C729.089 860.205 735.386 860.153 740.252 862.159C743.236 866.095 743.182 897.883 739.834 898.663C728.369 901.335 720.961 900.921 716.864 914.725C700.425 970.115 693.223 1027.69 676.735 1083.03C672.747 1096.41 670.787 1112.79 665.593 1125.52C636.714 1130 592.01 1127.47 561.661 1126.63C556.187 1103.46 548.525 1077.26 541.217 1054.65C537.2 1042.23 521.317 966.594 515.189 961.516C510.064 967.598 483.119 1073.35 478.245 1088.25C474.776 1098.85 472.826 1128.48 461.306 1129.5C458.766 1129.7 456.222 1129.84 453.676 1129.91C451.159 1131.21 450.313 1130.14 448.489 1128.83C444.307 1131.23 386.433 1126.14 376.732 1128.11C369.635 1129.56 365.463 1121.06 363.625 1114.38C346.826 1053.36 324.817 993.63 311.042 931.819C308.501 920.453 289.868 873.727 293.676 865.699C300.315 863.273 403.962 862.193 405.634 865.581C414.265 883.071 442.099 1030.58 451.713 1037.49C458.789 1027.92 487.536 887.913 494.767 864.566C502.111 863.831 512.14 862.513 519.263 863.902L520.169 864.029Z"/>

  <!-- W spear highlights -->
  <path fill="#365C6A" d="M448.489 1128.83L472.183 1033C473.925 1025.79 475.439 1006.81 477.108 1004.71C480.983 1002.76 478.994 1003.16 483.296 1003.43C486.625 1005.72 485.535 1004.25 486.928 1007.79C486.698 1011.74 481.707 1019.56 479.906 1026.81C471.365 1061.21 462.35 1095.55 453.676 1129.91C451.159 1131.21 450.313 1130.14 448.489 1128.83Z"/>
  <path fill="#365C6A" d="M519.263 863.902L520.169 864.029C526.244 876.808 520.711 904.921 518.477 918.923C516.759 908.187 515.593 894.835 514.278 883.833C507.711 893.226 501.135 903.366 494.718 912.922C499.334 899.142 508.317 873.713 519.263 863.902Z"/>
  <path fill="#365C6A" d="M503.254 923.86C506.609 925.274 511.35 931.411 514.151 934.521L506.522 961.343C504.931 950.243 503.848 938.852 502.658 927.685C502.441 926.642 502.697 927.165 501.594 926.297C497.318 930.813 487.511 946.437 483.597 952.36L489.837 929.014L503.254 923.86Z"/>
  <path fill="#365C6A" d="M488.559 965.766C489.627 965.872 489.105 965.656 489.972 966.704C487.754 971.424 481.418 980.158 478.214 984.837L477.325 985.09C476.768 981.646 478.863 973.218 479.633 969.36L488.559 965.766Z"/>
  <path fill="#365C6A" d="M494.003 967.373C496.664 969.295 499.775 972.896 502.138 975.383L498.057 986.728L497.183 988.411L496.42 987.97C494.918 982.062 494.51 973.639 494.003 967.373Z"/>

  <!-- A (first) — masked to cut out the counter -->
  <path fill="#FFF3C2" mask="url(#mask-a1)" d="M865.929 859.625C871.274 859.263 877.395 859.627 882.792 859.925C901.952 860.986 921.123 858.902 940.241 859.716C965.851 919.187 987.546 980.143 1010.54 1040.65C1017.54 1059.01 1024.67 1077.32 1031.94 1095.57C1034.89 1102.95 1040.59 1115.39 1042.74 1122.41L1041.38 1124.48C1030.06 1129.26 956.616 1126.57 939.765 1129.2L938.383 1129.43C934.115 1116.85 928.944 1103.58 924.297 1091.06L919.089 1077.38C886.234 1075.66 850.922 1079.34 821.018 1077.14L800.681 1127.17C792.115 1127.01 769.98 1128.89 763.543 1126.42C763.13 1125.59 762.87 1125.2 762.74 1124.2C762.206 1120.07 783.462 1068.32 787.089 1059.82C797.098 1036.37 807.475 1012.46 816.459 988.64C821.204 976.062 824.912 963.065 829.762 950.551C833.022 942.143 836.838 933.968 840.035 925.527C845.061 912.251 859.325 869.36 865.929 859.625Z"/>

  <!-- K -->
  <path fill="#FFF3C2" d="M1318.74 859.572C1334.74 858.208 1340.63 860.053 1353.53 868.54C1353.96 875.845 1354.33 896.181 1353.21 902.282C1350.79 904.911 1327.28 896.848 1314.86 905.236C1297.58 916.902 1284.77 929.692 1270.93 945.199C1264.68 952.211 1255.99 963.161 1248.41 967.847C1274.68 1003.74 1303.22 1038.3 1328.69 1074.81C1335.67 1084.8 1362.42 1114.51 1365.47 1123.82L1364.24 1125.68C1358.41 1128.52 1252.91 1128.61 1248.88 1126.41C1235.62 1119.19 1192.83 1037.35 1180.66 1033.29L1179.76 1034.06C1179.01 1053.3 1179.76 1078.55 1180.46 1097.68C1180.52 1105.32 1184.89 1127.34 1175.39 1127.13C1162.07 1126.83 1085.27 1128.84 1078.34 1125.18C1076.65 1114.02 1077.99 1102.45 1077.23 1091.34C1075.43 1065.42 1077.16 1040.44 1077.54 1014.71C1077.85 963.89 1077.58 913.068 1076.71 862.255C1110.5 863.256 1144.31 863.542 1178.11 863.112C1177.41 901.949 1177.65 940.798 1178.84 979.623C1184.14 973.446 1190.5 967.933 1196.34 962.173L1233 925.723C1250.51 907.994 1267.2 884.989 1287.86 870.494C1295.59 865.07 1309.51 861.724 1318.74 859.572Z"/>

  <!-- A (second) — masked to cut out the counter -->
  <path fill="#FFF3C2" mask="url(#mask-a2)" d="M1488.96 859.611C1495 859.217 1501.7 859.725 1507.78 859.999C1526.22 860.83 1544.58 859.127 1563.01 859.657C1569.13 871.621 1577.99 895.054 1583.16 908.084C1597.51 944.674 1611.46 981.42 1625.01 1018.31C1633.15 1040.24 1641.54 1062.08 1650.15 1083.82C1654.47 1094.63 1662.3 1112 1665.67 1122.47L1664.37 1124.48C1653.25 1129.21 1579.54 1126.63 1562.77 1129.19L1561.38 1129.41C1556.74 1116.6 1552.03 1103.82 1547.25 1091.07L1542.11 1077.35C1508.85 1075.2 1474.8 1079.46 1443.96 1077.14C1437.38 1093.86 1430.31 1110.45 1423.68 1127.17C1415.52 1127.03 1391.76 1128.91 1386.27 1126.32C1386.15 1125.88 1386 1125.45 1385.91 1125.01C1384.99 1120.23 1405.05 1071.33 1408.57 1063.22C1418.95 1039.25 1430.49 1012.37 1439.59 988.139L1474.73 894.307C1477.15 887.986 1485.8 864.018 1488.96 859.611Z"/>

  <!-- Subtext -->
  <path fill="#FFF3C2" d="M1367.96 1158.34C1375.87 1159.36 1389.35 1177.13 1395.61 1184.24C1395.77 1176.71 1393.82 1167.11 1396.88 1161.21C1400.18 1159.08 1398.36 1159.7 1402.65 1159.73C1405.67 1163.71 1404.3 1194.21 1404.25 1201.73C1403.72 1201.77 1401.66 1201.94 1401.37 1201.79C1394.93 1198.52 1380.99 1181.49 1376.34 1176.35C1376.21 1183.8 1377.89 1192.73 1375.27 1199.11C1372.25 1201.58 1374.01 1200.8 1369.56 1200.88C1366.68 1197.48 1367.95 1165.69 1367.96 1158.34Z"/>
  <path fill="#FFF3C2" d="M1226.58 1158.54C1236 1159.71 1248.02 1177.04 1254.53 1184.39C1254.61 1176.98 1251.82 1164.29 1257.7 1159.71C1261.31 1159.48 1259.97 1158.86 1262.29 1160.61C1263.64 1170.53 1262.92 1190.95 1262.86 1201.82L1259.4 1201.63C1253.22 1197.64 1240.65 1182.56 1235.22 1176.29C1235.08 1183.67 1236.83 1193.04 1234.19 1199.05C1231.1 1201.54 1232.87 1200.73 1228.47 1200.99C1225.06 1197.48 1226.55 1166.15 1226.58 1158.54Z"/>
  <path fill="#FFF3C2" mask="url(#mask-small-a1)" d="M1312.51 1158.56L1316.79 1159.19C1321.72 1163.72 1331.2 1192.68 1333.47 1200.11L1332.82 1201.12C1324.44 1204.44 1325.63 1196.69 1320.54 1194.05C1298.44 1193.73 1311.25 1199.1 1302.9 1201.2C1300.84 1201.71 1298.67 1201.42 1296.83 1200.36C1297.48 1195.2 1309.81 1165.61 1312.51 1158.56Z"/>
  <path fill="#FFF3C2" mask="url(#mask-small-a2)" d="M1569.65 1158.77C1572.11 1158.91 1572.02 1158.95 1574.43 1159.47C1578.18 1163.71 1590.65 1196.02 1590.61 1200.51C1586.76 1202.25 1588.63 1202.12 1584.92 1201.62C1580.32 1198.32 1581.68 1195.55 1577.39 1194.04C1573.24 1193.98 1567.64 1193.25 1564.59 1195.68C1563.46 1198.46 1563.46 1199.18 1561.22 1201.16C1557.71 1201.72 1557.94 1201.67 1554.49 1200.73C1553.85 1198.22 1567.45 1164.43 1569.65 1158.77Z"/>
  <path fill="#FFF3C2" d="M1454.18 1159.38C1465.38 1158.18 1468.19 1159.07 1477.13 1165.62L1471.05 1171.29C1465.9 1169.67 1464.55 1166.62 1458.07 1168.15C1454.53 1169 1451.51 1171.33 1449.8 1174.55C1448.25 1177.4 1447.95 1180.76 1448.96 1183.83C1452.26 1194.03 1460.88 1194.55 1469.37 1190.4L1470.38 1189.42L1472.07 1189.8C1475.17 1192.58 1474.37 1190.94 1475.04 1194.61C1471.42 1202.97 1460.3 1203.16 1452.81 1200.63C1447.87 1198.98 1443.8 1195.38 1441.56 1190.67C1438.92 1185.1 1438.61 1178.71 1440.69 1172.9C1443.38 1165.26 1447.32 1162.71 1454.18 1159.38Z"/>
  <path fill="#FFF3C2" d="M1122.2 1159.55C1129.61 1159.6 1140.73 1157.81 1145.58 1161.9C1146.57 1165.44 1146.68 1163.72 1144.99 1167.21C1141.01 1169.03 1138.56 1167.71 1133.15 1167.82C1129.85 1170.51 1130.13 1174.48 1133.08 1177.32C1136.19 1177.51 1137.04 1177.58 1140.22 1178.23C1142.29 1181.5 1141.54 1181.08 1141.39 1185.8C1122.16 1185.24 1135.81 1191.51 1129.53 1201.42C1125.83 1202.15 1126.98 1201.93 1122.96 1200.6C1121.58 1197.25 1122.2 1165.75 1122.2 1159.55Z"/>
  <path fill="#FFF3C2" d="M1625.17 1159.53C1628.36 1159.56 1631.62 1159.08 1633.62 1160.7C1634.71 1168.61 1634.14 1183.98 1634.08 1192.47C1638.83 1192.48 1642.79 1191.36 1647.04 1193.14C1649.15 1196.3 1648.38 1196.42 1648.42 1201.04L1625.09 1201.07L1625.17 1159.53Z"/>
  <path fill="#FFF3C2" d="M1180.14 1159.54C1183.35 1159.48 1186.18 1158.96 1188.74 1160.64C1190.06 1167.13 1189.32 1193.12 1189.25 1201.05C1185.52 1201.08 1183.74 1201.63 1180.67 1200.12C1179.53 1191.51 1180.11 1169.25 1180.14 1159.54Z"/>
  <path fill="#FFF3C2" d="M1510.91 1159.54C1513.77 1159.51 1515.72 1159.65 1518.53 1159.87C1520.79 1162.93 1519.8 1194.91 1519.76 1201.11C1516.31 1201.11 1513.44 1201.54 1511.19 1199.62C1510.18 1189.86 1510.83 1170.07 1510.91 1159.54Z"/>
</svg>
