<?xml version="1.0" encoding="utf-8" ?>
<svg xmlns="http://www.w3.org/2000/svg" width="512" height="512" viewBox="255 735 520 520" preserveAspectRatio="xMidYMid meet">

  <!-- W -->
  <path fill="#FFF3C2" d="M520.169 864.029C527.31 862.087 584.587 861.562 591.341 864.318C596.203 870.538 596.765 875.895 598.532 882.013C603.328 898.613 636.36 1033.49 644.206 1039.67C648.306 1035.16 648.515 1023.85 650.263 1017.57C654.426 1002.63 656.834 986.511 659.973 971.71C667.828 934.678 673.953 862.169 723.748 860.395C729.089 860.205 735.386 860.153 740.252 862.159C743.236 866.095 743.182 897.883 739.834 898.663C728.369 901.335 720.961 900.921 716.864 914.725C700.425 970.115 693.223 1027.69 676.735 1083.03C672.747 1096.41 670.787 1112.79 665.593 1125.52C636.714 1130 592.01 1127.47 561.661 1126.63C556.187 1103.46 548.525 1077.26 541.217 1054.65C537.2 1042.23 521.317 966.594 515.189 961.516C510.064 967.598 483.119 1073.35 478.245 1088.25C474.776 1098.85 472.826 1128.48 461.306 1129.5C458.766 1129.7 456.222 1129.84 453.676 1129.91C451.159 1131.21 450.313 1130.14 448.489 1128.83C444.307 1131.23 386.433 1126.14 376.732 1128.11C369.635 1129.56 365.463 1121.06 363.625 1114.38C346.826 1053.36 324.817 993.63 311.042 931.819C308.501 920.453 289.868 873.727 293.676 865.699C300.315 863.273 403.962 862.193 405.634 865.581C414.265 883.071 442.099 1030.58 451.713 1037.49C458.789 1027.92 487.536 887.913 494.767 864.566C502.111 863.831 512.14 862.513 519.263 863.902L520.169 864.029Z"/>

  <!-- W paddle highlights -->
  <path fill="#365C6A" d="M448.489 1128.83L472.183 1033C473.925 1025.79 475.439 1006.81 477.108 1004.71C480.983 1002.76 478.994 1003.16 483.296 1003.43C486.625 1005.72 485.535 1004.25 486.928 1007.79C486.698 1011.74 481.707 1019.56 479.906 1026.81C471.365 1061.21 462.35 1095.55 453.676 1129.91C451.159 1131.21 450.313 1130.14 448.489 1128.83Z"/>
  <path fill="#365C6A" d="M519.263 863.902L520.169 864.029C526.244 876.808 520.711 904.921 518.477 918.923C516.759 908.187 515.593 894.835 514.278 883.833C507.711 893.226 501.135 903.366 494.718 912.922C499.334 899.142 508.317 873.713 519.263 863.902Z"/>
  <path fill="#365C6A" d="M503.254 923.86C506.609 925.274 511.35 931.411 514.151 934.521L506.522 961.343C504.931 950.243 503.848 938.852 502.658 927.685C502.441 926.642 502.697 927.165 501.594 926.297C497.318 930.813 487.511 946.437 483.597 952.36L489.837 929.014L503.254 923.86Z"/>
  <path fill="#365C6A" d="M488.559 965.766C489.627 965.872 489.105 965.656 489.972 966.704C487.754 971.424 481.418 980.158 478.214 984.837L477.325 985.09C476.768 981.646 478.863 973.218 479.633 969.36L488.559 965.766Z"/>
  <path fill="#365C6A" d="M494.003 967.373C496.664 969.295 499.775 972.896 502.138 975.383L498.057 986.728L497.183 988.411L496.42 987.97C494.918 982.062 494.51 973.639 494.003 967.373Z"/>

</svg>
